{"title":"Star Wars Rebels S02E06 Wings of the Master 1080P WEB-DL DD5 1 H","uid":12753752,"size":939522809,"categoryP":"video","categoryS":"hd___tv_shows","magnet":"?xt=urn:btih:3a94e18d31eab0ddd3709a87dba63fe66e1dba92&amp;dn=Star+Wars+Rebels+S02E06+Wings+of+the+Master+1080P+WEB-DL+DD5+1+H&amp;tr=udp%3A%2F%2Ftracker.leechers-paradise.org%3A6969&amp;tr=udp%3A%2F%2Fzer0day.ch%3A1337&amp;tr=udp%3A%2F%2Fopen.demonii.com%3A1337&amp;tr=udp%3A%2F%2Ftracker.coppersurfer.tk%3A6969&amp;tr=udp%3A%2F%2Fexodus.desync.com%3A6969","seeders":0,"leechers":1,"uploader":"jmanwf","files":2,"time":1447420317,"description":"Hera goes on a dangerous mission to acquire a new ship, the B-Wing, to help break a blockade and turn the tide in a crucial battle against the Empire.\r\n\r\n\r\n'\r\nVideo\r\nID : 2\r\nFormat : AVC\r\nFormat/Info : Advanced Video Codec\r\nFormat profile :   \r\nFormat settings, CABAC : Yes\r\nFormat settings, ReFrames : 4 frames\r\nCodec ID : avc1\r\nCodec ID/Info : Advanced Video Coding\r\nDuration : 22mn 7s\r\nBit rate : 5 147 Kbps\r\nWidth : 1 920 pixels\r\nHeight : 1 080 pixels\r\nDisplay aspect ratio : 16:9\r\nFrame rate mode : Constant\r\nFrame rate : 23.976 fps\r\nColor space : YUV\r\nChroma subsampling : 4:2:0\r\nBit depth : 8 bits\r\nScan type : Progressive\r\nBits/(Pixel*Frame) : 0.104\r\nStream size : 814 MiB (91%)\r\nLanguage : English\r\nEncoded date : UTC 2015-11-13 00:03:29\r\nTagged date : UTC 2015-11-13 00:06:06\r\nColor range : Limited\r\nColor primaries : BT.709\r\nTransfer characteristics : BT.709\r\nMatrix coefficients : BT.709\r\n\r\nAudio #1\r\nID : 1\r\nFormat : AAC\r\nFormat/Info : Advanced Audio Codec\r\nFormat profile : LC\r\nCodec ID : 40\r\nDuration : 22mn 7s\r\nBit rate mode : Variable\r\nBit rate : 127 Kbps\r\nMaximum bit rate : 198 Kbps\r\nChannel(s) : 2 channels\r\nChannel positions : Front: L R\r\nSampling rate : 48.0 KHz\r\nCompression mode : Lossy\r\nStream size : 20.1 MiB (2%)\r\nLanguage : English\r\nEncoded date : UTC 2015-11-13 00:03:28\r\nTagged date : UTC 2015-11-13 00:06:06\r\n\r\nAudio #2\r\nID : 3\r\nFormat : AC-3\r\nFormat/Info : Audio Coding 3\r\nMode extension : CM (complete main)\r\nFormat settings, Endianness : Big\r\nCodec ID : ac-3\r\nDuration : 22mn 7s\r\nBit rate mode : Constant\r\nBit rate : 384 Kbps\r\nChannel(s) : 6 channels\r\nChannel positions : Front: L C R, Side: L R, LFE\r\nSampling rate : 48.0 KHz\r\nBit depth : 16 bits\r\nCompression mode : Lossy\r\nStream size : 60.8 MiB (7%)\r\nLanguage : English\r\nEncoded date : UTC 2015-11-13 00:03:29\r\nTagged date : UTC 2015-11-13 00:06:06\r\n\r\nText\r\nID : 4-CC1\r\nFormat : EIA-608\r\nMuxing mode : Final Cut\r\nCodec ID : c608\r\nDuration : 21mn 27s\r\nBit rate mode : Constant\r\nStream size : 0.00 Byte (0%)\r\nLanguage : English\r\nEncoded date : UTC 2015-11-13 00:03:29\r\nTagged date : UTC 2015-11-13 00:03:38\r\n\r\n\r\n\r\n \nhttps://itunes.apple.com/us/tv-show/id1042728340","torrent":{"xt":"urn:btih:3a94e18d31eab0ddd3709a87dba63fe66e1dba92","amp;dn":"Star+Wars+Rebels+S02E06+Wings+of+the+Master+1080P+WEB-DL+DD5+1+H","amp;tr":["udp%3A%2F%2Ftracker.leechers-paradise.org%3A6969","udp%3A%2F%2Fzer0day.ch%3A1337","udp%3A%2F%2Fopen.demonii.com%3A1337","udp%3A%2F%2Ftracker.coppersurfer.tk%3A6969","udp%3A%2F%2Fexodus.desync.com%3A6969"],"infoHash":"3a94e18d31eab0ddd3709a87dba63fe66e1dba92","infoHashBuffer":{"type":"Buffer","data":[58,148,225,141,49,234,176,221,211,112,154,135,219,166,63,230,110,29,186,146]},"announce":[],"urlList":[]}}